<svg width="782" height="889" viewBox="0 0 782 889" fill="none" xmlns="http://www.w3.org/2000/svg">
<path opacity="0.8" fill-rule="evenodd" clip-rule="evenodd" d="M600.516 604.158C546.825 692.365 566.738 835.389 472.656 877.985C379.278 920.262 283.904 819.635 185.102 792.236C89.1158 765.618 -23.8377 787.202 -97.2997 719.929C-174.164 649.54 -205.825 538.909 -205.308 434.717C-204.81 334.562 -155.288 242.985 -94.5357 163.373C-37.9904 89.2739 33.209 17.0366 125.163 1.65573C211.189 -12.7335 280.144 70.9702 366.012 86.3384C463.564 103.798 574.31 40.293 655.846 96.6351C740.955 155.447 791.485 269.795 780.277 372.602C769.421 472.185 652.596 518.597 600.516 604.158Z" fill="#FEDFB1"/>
</svg>
