<svg width="890" height="992" viewBox="0 0 890 992" fill="none" xmlns="http://www.w3.org/2000/svg">
<path fill-rule="evenodd" clip-rule="evenodd" d="M575.706 -121.746C714.704 -144.885 844.744 -292.938 972.613 -233.688C1099.53 -174.881 1080.55 13.3567 1140.3 139.87C1198.35 262.778 1321.33 360.256 1317.29 496.125C1313.07 638.287 1226.97 769.607 1118.85 861.938C1014.91 950.692 876.147 981.142 739.735 989.324C612.77 996.939 474.667 987.753 376.816 906.445C285.273 830.38 310.305 684.523 249.652 582.098C180.745 465.735 16.4177 407.902 1.96445 273.434C-13.1224 133.071 59.9967 -21.0598 176.217 -101.11C288.794 -178.65 440.877 -99.3004 575.706 -121.746Z" fill="#D9F4FF"/>
</svg>
