<svg width="33" height="28" viewBox="0 0 33 28" fill="none" xmlns="http://www.w3.org/2000/svg">
<path d="M16.125 9C13.44 9 11.25 11.19 11.25 13.875C11.25 16.56 13.44 18.75 16.125 18.75C18.81 18.75 21 16.56 21 13.875C21 11.19 18.81 9 16.125 9ZM16.125 16.5C14.6775 16.5 13.5 15.3225 13.5 13.875C13.5 12.4275 14.6775 11.25 16.125 11.25C17.5725 11.25 18.75 12.4275 18.75 13.875C18.75 15.3225 17.5725 16.5 16.125 16.5Z" fill="#130F49"/>
<path d="M1.125 8.24999C1.7475 8.24999 2.25 7.74749 2.25 7.12499V2.25H7.12499C7.74749 2.25 8.24999 1.7475 8.24999 1.125C8.24999 0.5025 7.74749 0 7.12499 0H1.125C0.5025 0 0 0.5025 0 1.125V7.12499C0 7.74749 0.5025 8.24999 1.125 8.24999Z" fill="#130F49"/>
<path d="M1.125 27.75H7.12499C7.74749 27.75 8.24999 27.2475 8.24999 26.625C8.24999 26.0025 7.74749 25.5 7.12499 25.5H2.25V20.625C2.25 20.0025 1.7475 19.5 1.125 19.5C0.5025 19.5 0 20.0025 0 20.625V26.625C0 27.2475 0.5025 27.75 1.125 27.75Z" fill="#130F49"/>
<path d="M31.125 19.5C30.5025 19.5 30 20.0025 30 20.625V25.5H25.125C24.5025 25.5 24 26.0025 24 26.625C24 27.2475 24.5025 27.75 25.125 27.75H31.125C31.7475 27.75 32.25 27.2475 32.25 26.625V20.625C32.25 20.0025 31.7475 19.5 31.125 19.5Z" fill="#130F49"/>
<path d="M31.125 0H25.125C24.5025 0 24 0.5025 24 1.125C24 1.7475 24.5025 2.25 25.125 2.25H30V7.12499C30 7.74749 30.5025 8.24999 31.125 8.24999C31.7475 8.24999 32.25 7.74749 32.25 7.12499V1.125C32.25 0.5025 31.7475 0 31.125 0Z" fill="#130F49"/>
</svg>
