<svg width="36" height="36" viewBox="0 0 36 36" fill="none" xmlns="http://www.w3.org/2000/svg">
<path d="M12.2775 16.125C12.4575 16.1475 12.63 16.155 12.81 16.155C13.92 16.155 14.985 15.78 15.855 15.075C16.8675 14.2575 17.505 13.095 17.6475 11.7975C17.79 10.5 17.415 9.23252 16.5975 8.22002C14.91 6.12752 11.835 5.79752 9.74254 7.48502C8.73004 8.30252 8.09254 9.46502 7.95004 10.7625C7.80754 12.06 8.18254 13.3275 9.00004 14.34C9.82504 15.3525 10.9875 15.99 12.2775 16.125ZM10.1925 11.0025C10.2675 10.305 10.6125 9.68252 11.1525 9.24002C11.625 8.85752 12.195 8.66252 12.795 8.66252C12.8925 8.66252 12.9825 8.67002 13.08 8.67752C13.7775 8.75252 14.4 9.09752 14.8425 9.64502C15.285 10.1925 15.48 10.875 15.405 11.5725C15.33 12.27 14.985 12.8925 14.445 13.335C13.905 13.7775 13.215 13.9725 12.5175 13.8975C11.82 13.8225 11.1975 13.4775 10.755 12.93C10.32 12.3825 10.1175 11.7 10.1925 11.0025Z" fill="#130F49"/>
<path d="M27.4203 21.66C25.7328 19.5675 22.6578 19.2375 20.5653 20.925C19.5528 21.7425 18.9153 22.905 18.7728 24.2025C18.6303 25.5 19.0053 26.7675 19.8228 27.78C20.6403 28.7925 21.8028 29.43 23.1003 29.5725C23.2803 29.595 23.4528 29.6025 23.6328 29.6025C24.7428 29.6025 25.8078 29.2275 26.6778 28.5225C28.7703 26.8275 29.1078 23.7525 27.4203 21.66ZM25.2678 26.76C24.7203 27.2025 24.0378 27.3975 23.3403 27.3225C22.6428 27.2475 22.0203 26.9025 21.5778 26.355C21.1353 25.8075 20.9403 25.125 21.0153 24.4275C21.0903 23.73 21.4353 23.1075 21.9753 22.665C22.4628 22.275 23.0403 22.0875 23.6178 22.0875C24.3828 22.0875 25.1478 22.425 25.6653 23.0625C26.5728 24.195 26.3928 25.8525 25.2678 26.76Z" fill="#130F49"/>
<path d="M28.2002 9.47238C27.8102 8.98488 27.1052 8.90988 26.6177 9.29988L7.9277 24.3599C7.4402 24.7499 7.3652 25.4549 7.7552 25.9424C7.9802 26.2199 8.3027 26.3624 8.6327 26.3624C8.8802 26.3624 9.1277 26.2799 9.3377 26.1149L28.0277 11.0624C28.5152 10.6649 28.5902 9.95988 28.2002 9.47238Z" fill="#130F49"/>
</svg>
